<mxfile host="app.diagrams.net" agent="Mozilla/5.0 (Macintosh; Intel Mac OS X 10_15_7) AppleWebKit/537.36 (KHTML, like Gecko) Chrome/137.0.0.0 Safari/537.36" version="27.1.6">
  <diagram name="第 1 页" id="OT-_ZeZXR8U-0cfvmwt2">
    <mxGraphModel dx="4753" dy="2747" grid="0" gridSize="10" guides="0" tooltips="1" connect="1" arrows="1" fold="1" page="1" pageScale="1" pageWidth="827" pageHeight="1169" math="0" shadow="0">
      <root>
        <mxCell id="0" />
        <mxCell id="1" parent="0" />
        <mxCell id="SLSMxfVSpzhviM2W_2Z6-67" value="" style="rounded=1;whiteSpace=wrap;html=1;strokeWidth=4;fillColor=#cce5ff;strokeColor=#36393d;" vertex="1" parent="1">
          <mxGeometry x="486" y="358" width="703" height="491" as="geometry" />
        </mxCell>
        <mxCell id="SLSMxfVSpzhviM2W_2Z6-68" value="&lt;b&gt;&lt;font style=&quot;font-size: 16px;&quot; face=&quot;Georgia&quot;&gt;&lt;i&gt;背景/非关注区域&lt;/i&gt;&lt;/font&gt;&lt;/b&gt;" style="text;html=1;align=center;verticalAlign=middle;whiteSpace=wrap;rounded=0;strokeWidth=3;" vertex="1" parent="1">
          <mxGeometry x="1000.8699999999999" y="802.25" width="133" height="30" as="geometry" />
        </mxCell>
        <mxCell id="SLSMxfVSpzhviM2W_2Z6-69" value="&lt;font style=&quot;font-size: 24px;&quot; face=&quot;Georgia&quot;&gt;&lt;b style=&quot;&quot;&gt;特征图 Feature Map&lt;/b&gt;&lt;/font&gt;" style="text;html=1;align=center;verticalAlign=middle;whiteSpace=wrap;rounded=0;" vertex="1" parent="1">
          <mxGeometry x="700.6199999999999" y="383.25" width="273.75" height="30" as="geometry" />
        </mxCell>
        <mxCell id="SLSMxfVSpzhviM2W_2Z6-70" value="" style="rounded=1;whiteSpace=wrap;html=1;fillColor=#cce5ff;strokeColor=#36393d;strokeWidth=5;dashed=1;" vertex="1" parent="1">
          <mxGeometry x="548.8699999999999" y="566.25" width="346" height="163" as="geometry" />
        </mxCell>
        <mxCell id="SLSMxfVSpzhviM2W_2Z6-71" value="&lt;b&gt;&lt;font style=&quot;font-size: 23px;&quot; face=&quot;Georgia&quot;&gt;传统矩阵窗口&lt;/font&gt;&lt;/b&gt;" style="text;html=1;align=center;verticalAlign=middle;whiteSpace=wrap;rounded=0;" vertex="1" parent="1">
          <mxGeometry x="565" y="721.25" width="175.87" height="64" as="geometry" />
        </mxCell>
        <mxCell id="SLSMxfVSpzhviM2W_2Z6-72" value="&lt;b&gt;&lt;font style=&quot;font-size: 17px;&quot; face=&quot;Georgia&quot;&gt;注意力聚焦&lt;/font&gt;&lt;/b&gt;" style="text;html=1;align=center;verticalAlign=middle;whiteSpace=wrap;rounded=0;fontColor=light-dark(#385be5, #ededed);" vertex="1" parent="1">
          <mxGeometry x="571.8699999999999" y="670" width="109" height="47.25" as="geometry" />
        </mxCell>
        <mxCell id="SLSMxfVSpzhviM2W_2Z6-73" value="" style="rhombus;whiteSpace=wrap;html=1;rotation=20;strokeWidth=3;strokeColor=#FF3333;" vertex="1" parent="1">
          <mxGeometry x="704.25" y="583.25" width="171" height="141" as="geometry" />
        </mxCell>
        <mxCell id="SLSMxfVSpzhviM2W_2Z6-74" value="&lt;meta charset=&quot;utf-8&quot;&gt;&lt;span style=&quot;color: rgba(0, 0, 0, 0); font-family: monospace; font-size: 0px; font-style: normal; font-variant-ligatures: normal; font-variant-caps: normal; font-weight: 400; letter-spacing: normal; orphans: 2; text-align: start; text-indent: 0px; text-transform: none; widows: 2; word-spacing: 0px; -webkit-text-stroke-width: 0px; white-space: nowrap; background-color: rgb(236, 236, 236); text-decoration-thickness: initial; text-decoration-style: initial; text-decoration-color: initial; display: inline !important; float: none;&quot;&gt;&amp;nbsp;&lt;/span&gt;" style="ellipse;whiteSpace=wrap;html=1;aspect=fixed;fillColor=#385BE5;" vertex="1" parent="1">
          <mxGeometry x="758.8699999999999" y="683.25" width="14" height="14" as="geometry" />
        </mxCell>
        <mxCell id="SLSMxfVSpzhviM2W_2Z6-75" value="&lt;span style=&quot;font-family: monospace; font-size: 0px; font-style: normal; font-variant-ligatures: normal; font-variant-caps: normal; font-weight: 400; letter-spacing: normal; orphans: 2; text-align: start; text-indent: 0px; text-transform: none; widows: 2; word-spacing: 0px; -webkit-text-stroke-width: 0px; white-space: nowrap; background-color: rgb(236, 236, 236); text-decoration-thickness: initial; text-decoration-style: initial; text-decoration-color: initial; float: none; display: inline !important;&quot;&gt;&amp;nbsp;&lt;/span&gt;" style="ellipse;whiteSpace=wrap;html=1;aspect=fixed;fontColor=#385BE5;strokeColor=#385BE5;fillColor=#385BE5;" vertex="1" parent="1">
          <mxGeometry x="811.8699999999999" y="646.75" width="14" height="14" as="geometry" />
        </mxCell>
        <mxCell id="SLSMxfVSpzhviM2W_2Z6-76" value="&lt;meta charset=&quot;utf-8&quot;&gt;&lt;span style=&quot;color: rgba(0, 0, 0, 0); font-family: monospace; font-size: 0px; font-style: normal; font-variant-ligatures: normal; font-variant-caps: normal; font-weight: 400; letter-spacing: normal; orphans: 2; text-align: start; text-indent: 0px; text-transform: none; widows: 2; word-spacing: 0px; -webkit-text-stroke-width: 0px; white-space: nowrap; background-color: rgb(236, 236, 236); text-decoration-thickness: initial; text-decoration-style: initial; text-decoration-color: initial; display: inline !important; float: none;&quot;&gt;&amp;nbsp;&lt;/span&gt;" style="ellipse;whiteSpace=wrap;html=1;aspect=fixed;fillColor=#385BE5;" vertex="1" parent="1">
          <mxGeometry x="825.8699999999999" y="674.25" width="14" height="14" as="geometry" />
        </mxCell>
        <mxCell id="SLSMxfVSpzhviM2W_2Z6-77" value="&lt;meta charset=&quot;utf-8&quot;&gt;&lt;span style=&quot;color: rgba(0, 0, 0, 0); font-family: monospace; font-size: 0px; font-style: normal; font-variant-ligatures: normal; font-variant-caps: normal; font-weight: 400; letter-spacing: normal; orphans: 2; text-align: start; text-indent: 0px; text-transform: none; widows: 2; word-spacing: 0px; -webkit-text-stroke-width: 0px; white-space: nowrap; background-color: rgb(236, 236, 236); text-decoration-thickness: initial; text-decoration-style: initial; text-decoration-color: initial; display: inline !important; float: none;&quot;&gt;&amp;nbsp;&lt;/span&gt;" style="ellipse;whiteSpace=wrap;html=1;aspect=fixed;fillColor=#385BE5;" vertex="1" parent="1">
          <mxGeometry x="744.8699999999999" y="628.25" width="14" height="14" as="geometry" />
        </mxCell>
        <mxCell id="SLSMxfVSpzhviM2W_2Z6-78" value="&lt;meta charset=&quot;utf-8&quot;&gt;&lt;span style=&quot;color: rgba(0, 0, 0, 0); font-family: monospace; font-size: 0px; font-style: normal; font-variant-ligatures: normal; font-variant-caps: normal; font-weight: 400; letter-spacing: normal; orphans: 2; text-align: start; text-indent: 0px; text-transform: none; widows: 2; word-spacing: 0px; -webkit-text-stroke-width: 0px; white-space: nowrap; background-color: rgb(236, 236, 236); text-decoration-thickness: initial; text-decoration-style: initial; text-decoration-color: initial; display: inline !important; float: none;&quot;&gt;&amp;nbsp;&lt;/span&gt;" style="ellipse;whiteSpace=wrap;html=1;aspect=fixed;fillColor=#385BE5;" vertex="1" parent="1">
          <mxGeometry x="804.8699999999999" y="603.25" width="14" height="14" as="geometry" />
        </mxCell>
        <mxCell id="SLSMxfVSpzhviM2W_2Z6-79" value="&lt;font face=&quot;Georgia&quot; style=&quot;font-size: 24px;&quot;&gt;可学习变换&lt;/font&gt;" style="text;html=1;align=center;verticalAlign=middle;whiteSpace=wrap;rounded=0;fontColor=light-dark(#ff3333, #ededed);labelBackgroundColor=default;" vertex="1" parent="1">
          <mxGeometry x="683.3699999999999" y="525.25" width="165.5" height="30" as="geometry" />
        </mxCell>
        <mxCell id="SLSMxfVSpzhviM2W_2Z6-80" value="&lt;font style=&quot;font-size: 23px;&quot;&gt;自适应四边形窗口&lt;/font&gt;" style="text;html=1;align=center;verticalAlign=middle;whiteSpace=wrap;rounded=0;fontColor=light-dark(#ff3333, #ededed);labelBackgroundColor=default;" vertex="1" parent="1">
          <mxGeometry x="950.8699999999999" y="600.25" width="210" height="70" as="geometry" />
        </mxCell>
        <mxCell id="SLSMxfVSpzhviM2W_2Z6-81" value="" style="verticalLabelPosition=bottom;html=1;verticalAlign=top;strokeWidth=11;shape=mxgraph.lean_mapping.physical_pull;pointerEvents=1;rotation=30;strokeColor=#FF3333;" vertex="1" parent="1">
          <mxGeometry x="580" y="522.25" width="108" height="103" as="geometry" />
        </mxCell>
      </root>
    </mxGraphModel>
  </diagram>
</mxfile>
